<?xml version="1.0" encoding="UTF-8"?>
<svg width="20px" height="20px" viewBox="0 0 20 20" version="1.1" xmlns="http://www.w3.org/2000/svg" xmlns:xlink="http://www.w3.org/1999/xlink">
    <title>Icons/Heart/White</title>
    <g id="Icons/Heart/White" stroke="none" stroke-width="1" fill="none" fill-rule="evenodd">
        <g id="Icons/heart">
            <rect id="Rectangle" x="0" y="0" width="20" height="20"></rect>
            <path d="M14.2324176,1 L13.9661884,1.00512275 C12.5270807,1.06499242 11.1611908,1.66096055 10.1380557,2.68171713 L9.98141759,2.837 L9.83609611,2.691041 C7.57924947,0.446243517 3.9364652,0.446243517 1.68157811,2.68908651 C-0.562403191,4.9506037 -0.559365082,8.59243093 1.68373121,10.8455544 L10.0003116,19.4374017 L18.3243092,10.8471674 C20.5607326,8.59684537 20.5607326,4.94829682 18.3154726,2.68897006 C17.2938416,1.66802103 15.9323351,1.07049453 14.4992639,1.0060118 L14.2324176,1 Z M14.2333652,3.00013934 C15.232944,2.99840456 16.1921547,3.39454979 16.8992933,4.10121086 L17.0458834,4.25716766 C18.3651922,5.74173953 18.3162474,8.01809129 16.8968497,9.44638171 L10.0004176,16.563 L3.11093061,9.44451735 C1.63392848,7.96077298 1.63194121,5.5786009 3.09664718,4.10242875 C4.56671352,2.64024502 6.94900115,2.64024502 8.42371506,4.107082 L9.98241426,5.66606668 L11.5515095,4.09668954 C12.2601866,3.38966094 13.2219189,2.99492029 14.2333652,3.00013934 Z" id="Path" fill="#FFFFFF" fill-rule="nonzero"></path>
        </g>
    </g>
</svg>